<?xml version="1.0" encoding="UTF-8" standalone="no"?>
<svg
   width="16"
   height="16"
   version="1.1"
   id="svg1"
   sodipodi:docname="Scened.svg"
   inkscape:version="1.3.2 (091e20ef0f, 2023-11-25)"
   xmlns:inkscape="http://www.inkscape.org/namespaces/inkscape"
   xmlns:sodipodi="http://sodipodi.sourceforge.net/DTD/sodipodi-0.dtd"
   xmlns="http://www.w3.org/2000/svg"
   xmlns:svg="http://www.w3.org/2000/svg">
  <defs
     id="defs1" />
  <sodipodi:namedview
     id="namedview1"
     pagecolor="#505050"
     bordercolor="#eeeeee"
     borderopacity="1"
     inkscape:showpageshadow="0"
     inkscape:pageopacity="0"
     inkscape:pagecheckerboard="0"
     inkscape:deskcolor="#505050"
     inkscape:zoom="66.233413"
     inkscape:cx="10.613978"
     inkscape:cy="8.1529847"
     inkscape:window-width="2560"
     inkscape:window-height="1504"
     inkscape:window-x="0"
     inkscape:window-y="0"
     inkscape:window-maximized="1"
     inkscape:current-layer="svg1"
     showguides="false" />
  <path
     style="fill:#e0e0e0;fill-opacity:1"
     d="m 8,5 7,3 V 7.15 L 9.25,4.5 15,1.85 V 1 L 8,4 1,1 V 1.85 L 6.75,4.5 1,7.15 V 8 Z"
     id="path6"
     sodipodi:nodetypes="ccccccccccccc" />
  <path
     d="M 9.1507691,9.723 8.361,9.861731 8.5006377,10.743987 9.5216251,10.60435 Z"
     style="fill:#e0e0e0;stroke-width:0.46425;fill-opacity:1"
     id="path1" />
  <path
     d="m 11.0075,9.4437373 -0.9285,0.1396377 0.370856,0.882256 0.9285,-0.139637 z"
     style="fill:#e0e0e0;stroke-width:0.46425;fill-opacity:1"
     id="path2" />
  <path
     d="m 12.8645,9.1653687 -0.9285,0.1396376 0.370856,0.8822567 0.9285,-0.139638 z"
     style="fill:#e0e0e0;stroke-width:0.46425;fill-opacity:1"
     id="path3" />
  <path
     d="M 14.813987,8.887 13.793,9.0266377 l 0.370856,0.8813496 0.789769,-0.138731 z"
     style="fill:#e0e0e0;stroke-width:0.46425;fill-opacity:1"
     id="path4" />
  <path
     d="M 1.649769,9.723 0.86,9.861731 0.999638,10.743987 2.020625,10.60435 Z"
     style="fill:#e0e0e0;stroke-width:0.46425;fill-opacity:1"
     id="path1-5" />
  <path
     d="M 3.5065,9.4437373 2.578,9.583375 l 0.370856,0.882256 0.9285,-0.139637 z"
     style="fill:#e0e0e0;stroke-width:0.46425;fill-opacity:1"
     id="path2-3" />
  <path
     d="M 5.3635,9.1653687 4.435,9.3050063 4.805856,10.187263 5.734356,10.047625 Z"
     style="fill:#e0e0e0;stroke-width:0.46425;fill-opacity:1"
     id="path3-5" />
  <path
     d="M 7.312987,8.887 6.292,9.0266377 6.662856,9.907987 7.452625,9.7692563 Z"
     style="fill:#e0e0e0;stroke-width:0.46425;fill-opacity:1"
     id="path4-6" />
  <path
     d="m 15.000332,14.056326 c -0.09684,-0.05245 -0.20843,-0.08433 -0.330959,-0.08433 -0.530434,0 -0.866129,0.569541 -0.609328,1.033681 h 0.940287 z"
     style="fill:#e0e0e0;stroke-width:0.46425;fill-opacity:1"
     id="path16" />
  <path
     d="m 7.5003321,14.05633 c -0.09684,-0.05245 -0.20843,-0.08433 -0.330959,-0.08433 -0.530434,0 -0.866129,0.569541 -0.609328,1.033681 h 0.940287 z"
     style="fill:#e0e0e0;stroke-width:0.46425;fill-opacity:1"
     id="path16-3" />
  <path
     d="m 8.5,11.286 v 2.7855 A 0.9285,0.9285 0 0 0 9.4285,15 h 2.7855 v -0.696375 l 0.801557,-0.20855 0.103368,-0.243912 -0.4171,-0.696375 0.487826,-0.487826 0.695467,0.418007 0.243913,-0.105182 0.174094,-0.765287 H 14.9995 V 11.286 Z"
     style="fill:#e0e0e0;stroke-width:0.46425;fill-opacity:1"
     id="path5" />
  <path
     d="m 1,11.286 v 2.7855 A 0.9285,0.9285 0 0 0 1.9285,15 H 4.714 v -0.696375 l 0.801557,-0.20855 0.103368,-0.243912 -0.4171,-0.696375 0.487826,-0.487826 0.695467,0.418007 L 6.629031,12.979787 6.803125,12.2145 H 7.4995 V 11.286 Z"
     style="fill:#e0e0e0;stroke-width:0.46425;fill-opacity:1"
     id="path5-2" />
</svg>
