<?xml version="1.0" encoding="UTF-8" standalone="no"?>
<svg
   width="16"
   height="16"
   xmlns="http://www.w3.org/2000/svg"
   xmlns:svg="http://www.w3.org/2000/svg">
  <path
     d="M 2.4003906,3.8007813 0.69921875,4.0996094 1,6 3.1992188,5.6992187 Z"
     style="fill:#e0e0e0"
     id="path20" />
  <path
     d="m 6.4003906,3.1992188 -2,0.3007812 0.7988281,1.9003906 2,-0.3007812 z"
     style="fill:#e0e0e0"
     id="path19" />
  <path
     d="M 10.400391,2.5996094 8.4003906,2.9003906 9.1992188,4.8007812 11.199219,4.5 Z"
     style="fill:#e0e0e0"
     id="path18" />
  <path
     d="m 14.599609,2 -2.199218,0.3007813 0.798828,1.8984374 1.701172,-0.2988281 z"
     style="fill:#e0e0e0"
     id="path17" />
  <path
     d="m 15,12.955078 c -0.208603,-0.11297 -0.448961,-0.18164 -0.712891,-0.18164 -1.14256,-1e-6 -1.865651,1.226798 -1.3125,2.226562 H 15 Z"
     style="fill:#e0e0e0"
     id="path16" />
  <path
     d="m 1,7 v 6 a 2,2 0 0 0 2,2 h 6 v -1.5 l 1.726563,-0.449219 0.222656,-0.52539 -0.898438,-1.5 L 11.101563,9.9746094 12.599609,10.875 13.125,10.648438 13.5,9 H 15 V 7 Z"
     style="fill:#e0e0e0"
     id="path15" />
</svg>
